<?xml version="1.0" encoding="utf-8"?>
<!-- Generator: Adobe Illustrator 22.0.1, SVG Export Plug-In . SVG Version: 6.00 Build 0)  -->
<svg version="1.1" id="Capa_1" xmlns="http://www.w3.org/2000/svg" xmlns:xlink="http://www.w3.org/1999/xlink" x="0px" y="0px"
	 viewBox="0 0 473 473" style="enable-background:new 0 0 473 473;" xml:space="preserve">
<style type="text/css">
	.st0{fill:#FF8E43;}
</style>
<path class="st0" d="M403.6,69.3C358.9,24.6,299.6,0,236.4,0S113.9,24.6,69.2,69.3c-86.4,86.4-92.4,224.7-14.9,318
	c-7.6,15.3-19.8,33.1-37.9,42c-8.7,4.3-13.6,13.6-12.1,23.2c1.5,9.6,8.9,17.1,18.5,18.6c4.5,0.7,10.9,1.4,18.7,1.4
	c20.9,0,51.7-4.9,83.2-27.6c35.1,18.9,73.5,28.1,111.6,28.1c61.2,0,121.8-23.7,167.4-69.3c44.7-44.7,69.3-104,69.3-167.2
	S448.3,114,403.6,69.3z M117.2,263.1c-14.7,0-26.6-11.9-26.6-26.6c0-14.7,11.9-26.6,26.6-26.6s26.6,11.9,26.6,26.6
	C143.8,251.2,131.9,263.1,117.2,263.1z M236.5,263.1c-14.7,0-26.6-11.9-26.6-26.6c0-14.7,11.9-26.6,26.6-26.6
	c14.7,0,26.6,11.9,26.6,26.6C263.1,251.2,251.2,263.1,236.5,263.1z M355.8,263.1c-14.7,0-26.6-11.9-26.6-26.6
	c0-14.7,11.9-26.6,26.6-26.6s26.6,11.9,26.6,26.6C382.4,251.2,370.4,263.1,355.8,263.1z"/>
</svg>
