<?xml version="1.0" encoding="utf-8"?>
<!-- Generator: Adobe Illustrator 22.0.1, SVG Export Plug-In . SVG Version: 6.00 Build 0)  -->
<svg version="1.1" id="Capa_1" xmlns="http://www.w3.org/2000/svg" xmlns:xlink="http://www.w3.org/1999/xlink" x="0px" y="0px"
	 viewBox="0 0 473 473" style="enable-background:new 0 0 473 473;" xml:space="preserve">
<style type="text/css">
	.st0{fill:#FFFFFF;}
	.st1{fill:#FF8E43;}
</style>
<g>
	<path class="st0" d="M397.2,75.7c-43-43-100-66.7-160.8-66.7S118.6,32.7,75.6,75.7c-83.1,83.1-88.9,216.1-14.3,305.9
		c-7.3,14.7-19,31.8-36.5,40.4c-8.4,4.1-13.1,13.1-11.6,22.3s8.6,16.4,17.8,17.9c4.3,0.7,10.5,1.3,18,1.3c20.1,0,49.7-4.7,80-26.5
		c33.8,18.2,70.7,27,107.4,27c58.9,0,117.2-22.8,161-66.7c43-43,66.7-100,66.7-160.8S440.2,118.7,397.2,75.7z M121.7,262.1
		c-14.1,0-25.6-11.4-25.6-25.6c0-14.1,11.4-25.6,25.6-25.6s25.6,11.4,25.6,25.6C147.3,250.6,135.9,262.1,121.7,262.1z M236.5,262.1
		c-14.1,0-25.6-11.4-25.6-25.6c0-14.1,11.4-25.6,25.6-25.6c14.1,0,25.6,11.4,25.6,25.6C262.1,250.6,250.6,262.1,236.5,262.1z
		 M351.3,262.1c-14.1,0-25.6-11.4-25.6-25.6c0-14.1,11.4-25.6,25.6-25.6c14.1,0,25.6,11.4,25.6,25.6
		C376.8,250.6,365.3,262.1,351.3,262.1z"/>
	<path class="st1" d="M236.3,470c-37.1,0-74-9-106.9-26c-30.7,21-60.6,25.5-80.5,25.5c-6.5,0-12.9-0.5-18.9-1.4
		c-11.8-1.8-21-11-22.8-22.9c-1.8-11.8,4.1-23.3,14.9-28.6c15-7.4,25.5-22.1,32-34.3C18.7,338.2,0.7,282.8,3.3,225.8
		c2.7-58.4,26.8-113.2,68-154.4C115.4,27.3,174.1,3,236.4,3c62.3,0,121,24.3,165.1,68.4l0,0c44.2,44.2,68.5,102.8,68.5,165.1
		c0,62.3-24.3,121-68.4,165.1c-22.1,22.1-48,39.3-76.9,51.1C296.5,464.2,266.8,470,236.3,470z M128.5,429.9l3.3,1.8
		c32,17.2,68.1,26.3,104.5,26.3c59.3,0,114.9-23,156.8-64.9c41.9-41.9,64.9-97.5,64.9-156.6c0-59.1-23.1-114.7-65-156.6l0,0
		C351.1,38.1,295.5,15,236.4,15c-59.1,0-114.7,23.1-156.6,64.9C-0.2,160-6.4,290.8,65.9,377.7l2.5,3l-1.7,3.5
		c-7.2,14.4-19.8,33.6-39.2,43.1c-6,3-9.4,9.4-8.4,16c1,6.7,6.2,11.9,12.8,12.9c5.4,0.8,11.2,1.3,17.1,1.3
		c18.8,0,47.4-4.4,76.5-25.4L128.5,429.9z M351.3,268.1c-17.4,0-31.6-14.2-31.6-31.6c0-17.4,14.2-31.6,31.6-31.6
		c17.4,0,31.6,14.2,31.6,31.6C382.8,253.9,368.7,268.1,351.3,268.1z M351.3,216.9c-10.8,0-19.6,8.8-19.6,19.6s8.8,19.6,19.6,19.6
		c10.8,0,19.6-8.8,19.6-19.6S362.1,216.9,351.3,216.9z M236.5,268.1c-17.4,0-31.6-14.2-31.6-31.6c0-17.4,14.2-31.6,31.6-31.6
		s31.6,14.2,31.6,31.6C268.1,253.9,253.9,268.1,236.5,268.1z M236.5,216.9c-10.8,0-19.6,8.8-19.6,19.6s8.8,19.6,19.6,19.6
		c10.8,0,19.6-8.8,19.6-19.6S247.3,216.9,236.5,216.9z M121.7,268.1c-17.4,0-31.6-14.2-31.6-31.6c0-17.4,14.2-31.6,31.6-31.6
		s31.6,14.2,31.6,31.6C153.3,253.9,139.2,268.1,121.7,268.1z M121.7,216.9c-10.8,0-19.6,8.8-19.6,19.6s8.8,19.6,19.6,19.6
		c10.8,0,19.6-8.8,19.6-19.6S132.5,216.9,121.7,216.9z"/>
</g>
</svg>
