<?xml version="1.0" encoding="utf-8"?>
<!-- Generator: Adobe Illustrator 22.0.1, SVG Export Plug-In . SVG Version: 6.00 Build 0)  -->
<svg version="1.1" id="Capa_1" xmlns="http://www.w3.org/2000/svg" xmlns:xlink="http://www.w3.org/1999/xlink" x="0px" y="0px"
	 viewBox="0 0 455.1 455.1" style="enable-background:new 0 0 455.1 455.1;" xml:space="preserve">
<style type="text/css">
	.st0{fill:#FF8E43;}
</style>
<path class="st0" d="M227.6,0C101.9,0,0,101.9,0,227.6s101.9,227.6,227.6,227.6s227.6-101.9,227.6-227.6S353.3,0,227.6,0z
	 M343.8,343.8c-9.6,9.6-25.5,9.6-35,0l-81.2-81.2l-81.2,81.2c-9.6,9.6-25.5,9.6-35,0c-9.5-9.6-9.6-25.5,0-35l81.2-81.2l-81.2-81.2
	c-9.6-9.6-9.6-25.5,0-35c9.6-9.6,25.5-9.6,35,0l81.2,81.2l81.2-81.2c9.6-9.6,25.5-9.6,35,0s9.6,25.5,0,35l-81.2,81.2l81.2,81.2
	C353.4,318.3,353.4,334.3,343.8,343.8z"/>
</svg>
