<?xml version="1.0" encoding="utf-8"?>
<!-- Generator: Adobe Illustrator 22.0.1, SVG Export Plug-In . SVG Version: 6.00 Build 0)  -->
<svg version="1.1" id="Layer_1" xmlns="http://www.w3.org/2000/svg" xmlns:xlink="http://www.w3.org/1999/xlink" x="0px" y="0px"
	 viewBox="0 0 512 512" style="enable-background:new 0 0 512 512;" xml:space="preserve">
<style type="text/css">
	.st0{fill:#FFFFFF;}
	.st1{fill:#FF8E43;}
</style>
<g>
	<path class="st0" d="M429.7,113h-51.1V61.8c0-2.7-1.1-5.3-3-7.2l-40.9-40.9c-1.2-1.2-2.9-2-4.6-2.5c-0.5-0.1-0.9-0.2-1.2-0.3
		c-0.5-0.1-0.9-0.3-1.3-0.3H225.4c-5.7,0-10.2,4.6-10.2,10.2v40.9c0,5.7,4.6,10.2,10.2,10.2h92V113H194.7V21c0-4.1-2.5-7.9-6.3-9.5
		s-8.2-0.8-11.1,2.2l-40.9,40.9c-1.9,1.9-3,4.5-3,7.2v51.1H82.3c-5.7,0-10.2,4.6-10.2,10.2v337.2c0,22.5,18.3,40.9,40.9,40.9h286.1
		c22.5,0,40.9-18.3,40.9-40.9V123.1C439.9,117.5,435.3,113,429.7,113z M348,380.6c-7.7,0-14.6-3.1-19.5-8L256,300.1l-72.4,72.4
		c-5,5-11.9,8.1-19.4,8.1c-15.2,0-27.6-12.4-27.6-27.6c0-7.7,3.2-14.7,8.2-19.6l91.7-91.7c5-5.1,12-8.2,19.6-8.2
		c8,0,15.3,3.4,20.4,9l90.1,90.1c5.6,5.1,9,12.3,9,20.4C375.5,368.3,363.1,380.6,348,380.6z"/>
</g>
<g>
	<path class="st1" d="M399.1,506.2H113c-25.3,0-45.9-20.6-45.9-45.9V123.1c0-8.4,6.8-15.2,15.2-15.2h46.1V61.8
		c0-4.1,1.6-7.9,4.4-10.7l40.9-40.9c4.3-4.4,10.8-5.7,16.6-3.3c5.7,2.4,9.4,7.9,9.4,14.1v87h112.6V77.1h-87
		c-8.4,0-15.2-6.8-15.2-15.2V20.9c0-8.4,6.8-15.2,15.2-15.2h102.2c1,0,1.8,0.2,2.3,0.4l0.3,0.1c0.3,0.1,0.6,0.2,1,0.2l0.4,0.1
		c2.8,0.8,5.1,2,6.8,3.8l40.9,40.9c2.9,2.9,4.4,6.7,4.4,10.7V108h46.1c8.3,0,15.2,6.8,15.3,15.1l0,337.2
		C445,485.6,424.4,506.2,399.1,506.2z M82.3,117.9c-2.9,0-5.2,2.4-5.2,5.2v337.2c0,19.8,16.1,35.9,35.9,35.9h286.1
		c19.8,0,35.9-16.1,35.9-35.9V123.1c0-2.9-2.4-5.2-5.3-5.2h-56.1V61.8c0-1.4-0.5-2.7-1.5-3.6l-40.9-40.9c-0.5-0.5-1.2-0.9-2.3-1.2
		c-0.4-0.1-0.8-0.2-1.2-0.3c-0.2,0-0.4-0.1-0.6-0.2H225.4c-2.9,0-5.2,2.4-5.2,5.2v40.9c0,2.9,2.4,5.2,5.2,5.2h97V118H189.7V21
		c0-2.1-1.3-4-3.3-4.9c-1.9-0.8-4.1-0.4-5.6,1.1l-41,41c-1,1-1.5,2.3-1.5,3.6v56.1H82.3z M348,385.6c-8.7,0-16.9-3.4-23.1-9.5
		l-68.9-69L187.1,376c-6.2,6.2-14.4,9.6-23,9.6c-18,0-32.6-14.6-32.6-32.6c0-8.7,3.5-17.1,9.7-23.2l91.6-91.6
		c6-6.2,14.5-9.7,23.2-9.7c9.1,0,17.8,3.8,24,10.5l90,90c6.8,6.3,10.5,14.8,10.5,24C380.5,371,365.9,385.6,348,385.6z M256,293
		l75.9,76c4.2,4.2,9.9,6.6,16,6.6c12.4,0,22.6-10.1,22.7-22.6c0-6.4-2.6-12.3-7.4-16.7l-0.2-0.2l-90.3-90.3
		c-4.3-4.7-10.4-7.4-16.7-7.4c-6,0-11.9,2.5-16.1,6.7l-91.7,91.7c-4.3,4.2-6.8,10.1-6.8,16.1c0,12.5,10.1,22.6,22.6,22.6
		c6,0,11.6-2.4,15.9-6.7L256,293z"/>
</g>
</svg>
