<?xml version="1.0" encoding="utf-8"?>
<!-- Generator: Adobe Illustrator 22.0.1, SVG Export Plug-In . SVG Version: 6.00 Build 0)  -->
<svg version="1.1" id="Capa_1" xmlns="http://www.w3.org/2000/svg" xmlns:xlink="http://www.w3.org/1999/xlink" x="0px" y="0px"
	 viewBox="0 0 512 512" style="enable-background:new 0 0 512 512;" xml:space="preserve">
<style type="text/css">
	.st0{fill:#A1FFCA;}
	.st1{fill:#FFFFFF;}
	.st2{fill:#FF8E43;}
</style>
<path id="Shape" class="st0" d="M256,145.1H59.7c-28.3,0-51.2,22.9-51.2,51.2V384c0,28.3,22.9,51.2,51.2,51.2h128
	c5.4,0,10.4,2.5,13.7,6.8l41.1,54.7c3.2,4.3,8.2,6.8,13.5,6.8c5.3,0,10.3-2.5,13.5-6.8l41.1-54.6c3.2-4.3,8.3-6.8,13.7-6.8h128
	c28.3,0,51.2-22.9,51.2-51.2V196.3c0-28.3-22.9-51.2-51.2-51.2L256,145.1z"/>
<path id="Shape_3_" class="st1" d="M258.1,294.1c3.2-3.2,5-7.5,5-12.1c0-4.5-1.8-8.9-5-12.1c-3-3-7.1-4.8-11.3-4.9
	c-4.2-0.2-7.6-3.6-7.8-7.9c-0.3-6.8-4.6-12.7-10.9-15.2c-6.3-2.5-13.5-1-18.3,3.8l163-162.9l42.2,42.2l6,6.1L258.1,294.1z"/>
<path id="Shape_1_" class="st0" d="M261,297c10.5,4.1,3.6-9,3.6-13.5s6.9-0.2,3.7-3.4c-3-3-7.1-4.8-11.3-4.9
	c-4.2-0.2-7.6-3.6-7.8-7.9c-0.3-6.8-4.6-12.7-10.9-15.2c-6.3-2.5-13.5-1-18.3,3.8L383,93.1l42.2,42.2l-1.3-1.2L261,297z"/>
<path id="Shape_4_" class="st1" d="M445.2,107L421,131.2l-6-6.1l-42.2-42.2l24.1-24.1L445.2,107z"/>
<path id="Shape_5_" class="st0" d="M490.4,66l-42.2,42.2l-40.4-40.4L450,25.6c10-10,26.2-10,36.3,0l4.1,4.2
	C500.4,39.8,500.4,56,490.4,66z"/>
<path id="Shape_7_" class="st1" d="M258.1,294.1l-37.7,17.4c-2-6.6-5.7-12.6-10.6-17.4c-4.9-4.9-10.9-8.5-17.4-10.6l17.4-37.7
	c4.8-4.8,12-6.3,18.3-3.8c6.3,2.5,10.6,8.4,10.9,15.2c0.2,4.2,3.5,7.6,7.8,7.9c4.3,0.1,8.3,1.9,11.3,4.9c3.2,3.2,5,7.5,5,12.1
	C263.1,286.5,261.3,290.9,258.1,294.1z"/>
<path id="Shape_8_" class="st0" d="M220.4,311.5l-30.9,14.3c-3.3,1.6-7.2,1-9.8-1.6c-2.6-2.6-3.2-6.5-1.6-9.8l14.3-30.9
	c6.6,2.1,12.5,5.7,17.4,10.6C214.7,298.9,218.4,304.9,220.4,311.5L220.4,311.5z"/>
<path id="Shape_9_" class="st1" d="M8.5,384c0,28.3,22.9,51.2,51.2,51.2h25.6c-28.3,0-51.2-22.9-51.2-51.2V196.3
	c0-28.3,22.9-51.2,51.2-51.2H59.7c-28.3,0-51.2,22.9-51.2,51.2V384z"/>
<path id="Shape_10_" class="st1" d="M201.4,442l41.1,54.7c4.8,6.5,13.7,8.6,20.9,5c2.1-1,3.9-2.4,5.3-4.3c-0.2-0.2-0.4-0.4-0.6-0.7
	L227,442c-3.2-4.3-8.3-6.8-13.7-6.8l-25.6,0C193.1,435.2,198.2,437.7,201.4,442L201.4,442z"/>
<path id="Rectangle-path" class="st1" d="M0,196.3h17.1v68.3H0V196.3z"/>
<g>
	<circle id="Oval" class="st2" cx="8.5" cy="230.4" r="8.5"/>
	<path id="Shape_11_" class="st2" d="M452.3,136.5c-4.7,0-8.5,3.8-8.5,8.5c0,4.7,3.8,8.5,8.5,8.5c23.6,0,42.6,19.1,42.7,42.7V384
		c0,23.6-19.1,42.6-42.7,42.7h-128c-8.1,0-15.6,3.8-20.5,10.2l-41.1,54.6c-1.5,2.1-4,3.4-6.7,3.4c-2.6,0-5.1-1.3-6.7-3.4l-41.1-54.7
		c-4.9-6.4-12.4-10.2-20.5-10.2h-128c-23.6,0-42.6-19.1-42.7-42.7V264.5c0-4.7-3.8-8.5-8.5-8.5S0,259.8,0,264.5V384
		c0,33,26.8,59.7,59.7,59.7h128c2.7,0,5.2,1.3,6.8,3.4l41.1,54.6c4.8,6.4,12.3,10.2,20.3,10.2c8,0,15.5-3.8,20.3-10.2l41.2-54.6
		c1.6-2.1,4.1-3.4,6.8-3.4h128c33,0,59.7-26.8,59.7-59.7V196.3C512,163.3,485.2,136.6,452.3,136.5L452.3,136.5z"/>
	<path id="Shape_12_" class="st2" d="M0,196.3c0,4.7,3.8,8.5,8.5,8.5s8.5-3.8,8.5-8.5c0-23.6,19.1-42.6,42.7-42.7H256
		c4.7,0,8.5-3.8,8.5-8.5c0-4.7-3.8-8.5-8.5-8.5H59.7C26.8,136.6,0,163.3,0,196.3z"/>
	<path id="Shape_13_" class="st2" d="M493.5,70.8c13.3-13.3,13.3-34.9,0-48.3l-12.1-12.1c-13.5-12.9-34.8-12.9-48.3,0l-42.2,42.2
		l-187,187c-0.7,0.7-1.3,1.5-1.7,2.4l-31.7,68.4c-3.4,6.6-2.1,14.5,3.2,19.7c3.2,3.2,7.5,5.1,12,5.1c2.6,0,5.1-0.6,7.4-1.8
		l68.6-31.8c0.9-0.4,1.7-1,2.4-1.7l187.1-187.1L493.5,70.8z M445.2,22.5c6.8-6.4,17.4-6.4,24.1,0l12.1,12.1c6.7,6.7,6.7,17.5,0,24.1
		l-36.2,36.2l-12.1-12.1l6-6.1c3-3.4,2.9-8.5-0.3-11.7c-3.2-3.2-8.4-3.3-11.7-0.3l-6,6L409,58.7L445.2,22.5z M216.9,251
		c3.4-2.4,8.1-2.1,11.1,0.9c1.5,1.5,2.4,3.5,2.5,5.7c0.4,8.6,7.3,15.5,16,16c3.2,0.1,6,2,7.3,4.8c1.4,2.8,1,6.2-0.8,8.7l-28.2,13
		c-4.7-9-12-16.2-20.9-20.9L216.9,251z M185.8,318l10.8-23.3c5.3,2.9,9.7,7.2,12.6,12.5L185.8,318z M421.1,119.1
		c-3.3-3.2-8.7-3.2-12,0.1c-3.3,3.3-3.3,8.6-0.1,12L269.1,271c-3.9-8.5-12.3-14.2-21.6-14.6c-0.3-6.3-3-12.2-7.4-16.6
		c-2.1-2-4.5-3.7-7.2-4.8L372.8,95l12.1,12c3.3,3.2,8.7,3.2,12-0.1c3.3-3.3,3.3-8.6,0.1-12l-12.1-12.1l12.1-12L415,88.9l18.1,18.1
		L421.1,119.1z"/>
	<path id="Shape_14_" class="st2" d="M463.3,52.7c2.4-2.4,3.2-6.1,1.9-9.3c-1.3-3.2-4.4-5.3-7.9-5.3s-6.6,2.1-7.9,5.3
		c-1.3,3.2-0.6,6.9,1.9,9.3C454.6,56,460,56,463.3,52.7z"/>
	<path id="Shape_15_" class="st2" d="M366.8,125.1L258.1,233.7c-2.4,2.1-3.3,5.4-2.6,8.4c0.8,3.1,3.2,5.5,6.2,6.2s6.3-0.2,8.4-2.6
		l108.6-108.6c2.2-2.2,3-5.3,2.2-8.2c-0.8-2.9-3.1-5.2-6-6C372.1,122.1,368.9,123,366.8,125.1L366.8,125.1z"/>
	<path id="Shape_16_" class="st2" d="M51.2,179.2c-4.7,0-8.5,3.8-8.5,8.5c0,4.7,3.8,8.5,8.5,8.5h8.5c4.7,0,8.5-3.8,8.5-8.5
		c0-4.7-3.8-8.5-8.5-8.5H51.2z"/>
	<path id="Shape_17_" class="st2" d="M221.9,187.7c0-4.7-3.8-8.5-8.5-8.5H93.9c-4.7,0-8.5,3.8-8.5,8.5c0,4.7,3.8,8.5,8.5,8.5h119.5
		C218,196.3,221.9,192.4,221.9,187.7z"/>
	<path id="Shape_18_" class="st2" d="M443.7,401.1h17.1c4.7,0,8.5-3.8,8.5-8.5s-3.8-8.5-8.5-8.5h-17.1c-4.7,0-8.5,3.8-8.5,8.5
		S439,401.1,443.7,401.1z"/>
	<path id="Shape_19_" class="st2" d="M324.3,384c-4.7,0-8.5,3.8-8.5,8.5s3.8,8.5,8.5,8.5h85.3c4.7,0,8.5-3.8,8.5-8.5
		s-3.8-8.5-8.5-8.5H324.3z"/>
</g>
</svg>
