<?xml version="1.0" encoding="utf-8"?>
<!-- Generator: Adobe Illustrator 22.0.1, SVG Export Plug-In . SVG Version: 6.00 Build 0)  -->
<svg version="1.1" id="Layer_1" xmlns="http://www.w3.org/2000/svg" xmlns:xlink="http://www.w3.org/1999/xlink" x="0px" y="0px"
	 viewBox="0 0 300 300" style="enable-background:new 0 0 300 300;" xml:space="preserve">
<style type="text/css">
	.st0{fill:#FF8E43;}
</style>
<path class="st0" d="M150,297.3c-19.1,0-34.6-15.5-34.6-34.6h69.2C184.6,281.8,169.1,297.3,150,297.3z M267,228L267,228L267,228
	c0,12.8-10.4,13.6-23.2,13.6H56.2c-12.8,0-23.2-0.8-23.2-13.6v-2.2c0-9.2,5.4-17.1,13.2-20.8l7.4-63.5c0-46.5,32.9-85.3,76.6-94.4
	V22.4c0-11,8.9-19.8,19.8-19.8c11,0,19.8,8.9,19.8,19.8V47c43.8,9.2,76.6,47.9,76.6,94.4l7.4,63.5c7.8,3.7,13.2,11.6,13.2,20.8V228z
	"/>
</svg>
