<?xml version="1.0" encoding="utf-8"?>
<!-- Generator: Adobe Illustrator 22.0.1, SVG Export Plug-In . SVG Version: 6.00 Build 0)  -->
<svg version="1.1" id="Layer_1" xmlns="http://www.w3.org/2000/svg" xmlns:xlink="http://www.w3.org/1999/xlink" x="0px" y="0px"
	 viewBox="0 0 300 300" style="enable-background:new 0 0 300 300;" xml:space="preserve">
<style type="text/css">
	.st0{fill:#FFFFFF;}
	.st1{fill:#FF8E43;}
</style>
<g>
	<path class="st0" d="M150,294.2c-18.7,0-33.9-15.2-33.9-33.9h67.7C183.9,279,168.7,294.2,150,294.2z M264.5,226.3L264.5,226.3
		L264.5,226.3c0,12.5-10.2,13.3-22.7,13.3H58.2c-12.5,0-22.7-0.8-22.7-13.3v-2.2c0-9,5.3-16.7,12.9-20.4l7.2-62.1
		c0-45.5,32.2-83.5,75-92.4V25.1c0-10.8,8.7-19.4,19.4-19.4c10.8,0,19.4,8.7,19.4,19.4v24.1c42.9,9,75,46.9,75,92.4l7.2,62.1
		c7.6,3.6,12.9,11.4,12.9,20.4V226.3z"/>
	<path class="st1" d="M150,298.2c-20.9,0-37.9-17-37.9-37.9v-4h75.7v4C187.9,281.2,170.9,298.2,150,298.2z M120.4,264.3
		c2,14.6,14.5,25.9,29.6,25.9c15.1,0,27.6-11.3,29.6-25.9H120.4z M241.8,243.6H58.2c-10.6,0-26.7,0-26.7-17.3v-2.2
		c0-9.4,5.1-18.2,13.2-22.9l7-59.8c0.1-45.2,31.4-84.7,75-95.3v-21c0-12.9,10.5-23.4,23.4-23.4c12.9,0,23.4,10.5,23.4,23.4V46
		c20.6,5,39.1,16.7,52.6,33.2c14.3,17.4,22.3,39.5,22.3,62.2l7,59.8c8.1,4.7,13.2,13.5,13.2,22.9v2.3
		C268.5,243.6,252.4,243.6,241.8,243.6z M150,9.7c-8.5,0-15.4,6.9-15.4,15.4v27.4l-3.2,0.7c-41.6,8.7-71.8,45.9-71.8,88.5l0,0.5
		l-7.5,64.3l-2,1c-6.6,3.1-10.6,9.5-10.6,16.7v2.2c0,7.5,3.7,9.3,18.7,9.3h183.6c15,0,18.7-1.8,18.7-9.3v-2.3
		c0-7.2-4.1-13.6-10.6-16.7l-2-1l-7.5-64.8c0-42.5-30.2-79.7-71.8-88.5l-3.2-0.7V25.1C165.4,16.6,158.5,9.7,150,9.7z"/>
</g>
</svg>
