<?xml version="1.0" encoding="utf-8"?>
<!-- Generator: Adobe Illustrator 22.0.1, SVG Export Plug-In . SVG Version: 6.00 Build 0)  -->
<svg version="1.1" id="Capa_1" xmlns="http://www.w3.org/2000/svg" xmlns:xlink="http://www.w3.org/1999/xlink" x="0px" y="0px"
	 viewBox="0 0 512 512" style="enable-background:new 0 0 512 512;" xml:space="preserve">
<style type="text/css">
	.st0{fill:#FFFFFF;}
	.st1{fill:#A1FFCA;}
	.st2{fill:#FF8E43;}
</style>
<path id="Shape_2_" class="st0" d="M348.4,78.1c-2.5,0-4.9-1.1-6.5-3c-13-15.1-31.9-23.9-51.8-23.9c-4.7,0-8.5-3.8-8.5-8.5
	s3.8-8.5,8.5-8.5c24.9,0,48.6,10.9,64.8,29.8c1.5,1.7,2.2,4,2,6.2c-0.2,2.3-1.2,4.4-3,5.8C352.4,77.3,350.5,78.1,348.4,78.1z"/>
<path id="Shape_3_" class="st1" d="M273.6,503.5h170.7c21.8-0.1,41.8-12.1,52.1-31.2c10.4-19.1,9.5-42.4-2.2-60.7L323.5,154.5
	c-11.1-16.7-29.8-26.8-49.8-26.8s-38.8,10.1-49.8,26.8L53.1,411.3c-11.8,18.3-12.8,41.6-2.4,60.8s30.4,31.2,52.2,31.3H273.6z"/>
<path id="Shape_5_" class="st0" d="M85.3,469.3c-9.5,0.2-18.2-5-22.6-13.4c-4.5-8.1-4-18,1.2-25.6l170.7-256.7
	c4.7-7.2,12.8-11.4,21.3-11.4s16.6,4.3,21.3,11.4l170.7,256.9c5.2,7.6,5.7,17.5,1.2,25.6c-4.4,8.2-13.1,13.3-22.4,13.1H85.3z"/>
<path id="Shape_7_" class="st1" d="M281.6,256c0,14.2-25.6,93.9-25.6,93.9s-25.6-79.7-25.6-93.9c0-14.1,11.5-25.6,25.6-25.6
	C270.1,230.4,281.6,241.9,281.6,256z"/>
<circle id="Oval" class="st1" cx="256" cy="409.6" r="25.6"/>
<path class="st1" d="M99.1,315.7l107.2-161.1c11.1-16.7,29.8-26.8,49.8-26.8c20.1,0,38.8,10.1,49.8,26.8l107,161.1
	c50.3-1.8,90.5-43.1,90.5-93.8c0-51.8-42-93.9-93.9-93.9c-2.6,0-5.6,0.4-8.5,0.4c0.2-3,0.2-6,0-9c0-54.6-39.7-101.1-93.7-109.6
	s-106,23.5-122.8,75.5c-28.6,1.2-54.1,18.2-66.3,44c-5.2-0.9-10.6-1.4-15.9-1.4c-51.8,0-93.9,42-93.9,93.9
	C8.5,272.6,48.8,313.9,99.1,315.7z"/>
<path id="Shape_8_" class="st0" d="M101,311.7c-42.1-12.7-69.8-52.9-66.6-96.8s36.5-79.6,80.1-86c-34.5-4.8-68.8,9.8-89.2,38.1
	s-23.4,65.4-7.9,96.6s47,51.2,81.8,52.1"/>
<path id="Shape_9_" class="st0" d="M25.6,153.6l12.8,11.3c-13.8,15.7-21.4,36-21.3,56.9H0C-0.1,196.7,9,172.5,25.6,153.6z"/>
<g>
	<path id="Shape_10_" class="st2" d="M341.9,75.1c1.6,1.9,4,3,6.5,3c2,0,4-0.8,5.5-2.1c1.7-1.5,2.8-3.6,3-5.8c0.2-2.3-0.6-4.5-2-6.2
		C338.7,45,315,34.1,290.1,34.1c-4.7,0-8.5,3.8-8.5,8.5s3.8,8.5,8.5,8.5C310.1,51.2,329,60,341.9,75.1z"/>
	<path id="Shape_11_" class="st2" d="M14.8,196.9c4.7,0,8.5-3.8,8.5-8.5s-3.8-8.5-8.5-8.5s-8.5,3.8-8.5,8.5S10,196.9,14.8,196.9z"/>
	<path id="Shape_12_" class="st2" d="M512,221.9c0-56.6-45.8-102.4-102.4-102.4c-0.1-57.7-41.4-107-98.2-117.3
		S198.7,23.6,178.3,77.6c-27.2,3-51.3,18.8-64.7,42.7c-3.7-0.5-7.5-0.7-11.3-0.8c-29.3-0.1-57.3,12.3-76.8,34.1
		c-1.5,1.7-2.3,4-2.1,6.4c0.2,2.3,1.3,4.5,3.1,5.9c3.6,2.6,8.6,2.2,11.8-0.9c16.3-18.2,39.6-28.5,64-28.4
		c16.8-0.1,33.3,4.9,47.3,14.3c1.4,0.9,3.1,1.5,4.8,1.5c2.8,0,5.5-1.4,7.1-3.8c1.3-1.9,1.8-4.2,1.4-6.5s-1.8-4.3-3.7-5.5
		c-8.6-5.7-17.9-10.1-27.8-13.1c12.2-17.8,32.2-28.8,53.8-29.6h1.9c10.8-0.1,21.5,2.4,31.1,7.2c2.7,1.5,6.1,1.3,8.7-0.4
		c2.6-1.7,4.1-4.7,3.9-7.8s-2.1-5.8-4.9-7.1c-9.1-4.5-18.9-7.4-29-8.5c19.9-43.9,67.7-68,114.9-57.8s80.8,51.8,80.8,100.1v1.5
		c-14.2,2.3-27.8,7.6-39.8,15.6c-3.9,2.6-4.9,7.9-2.3,11.9s7.9,4.9,11.9,2.3c14-9.3,30.5-14.3,47.3-14.2c47.1-2.1,87,34.5,89,81.6
		c2.1,47.1-34.5,87-81.6,89L313,149.9c-12.7-19.1-34.1-30.5-57-30.5c-22.9,0-44.2,11.4-56.9,30.4L94.8,307.2
		c-44.1-3.9-77.9-41-77.7-85.3c0-4.7-3.8-8.5-8.5-8.5S0,217.2,0,221.9c-0.2,49.6,35.4,92.2,84.3,100.7l-55.9,84
		c-13.9,20.9-15.2,47.8-3.3,69.9c11.9,22.1,35.1,35.8,60.2,35.6h341.3c24.9-0.1,47.8-13.8,59.7-35.8c11.9-21.9,10.8-48.6-2.7-69.5
		l-56.1-84.1C476.5,314.1,512.2,271.6,512,221.9L512,221.9z M471.6,468.1c-8.8,16.6-26.1,27-45,26.9H85.3
		c-18.9,0.2-36.4-10.2-45.2-27c-9-16.4-8-36.5,2.6-52l170.7-256.7c9.5-14.3,25.5-22.8,42.7-22.8c17.2,0,33.2,8.6,42.7,22.9
		l170.7,256.9C479.8,431.7,480.7,451.7,471.6,468.1z"/>
	<path id="Shape_13_" class="st2" d="M256,153.6c-11.4,0-22.1,5.7-28.4,15.2L56.9,425.5c-6.8,10.2-7.4,23.3-1.6,34.1
		c5.9,11.2,17.4,18.2,30,18.3h341.3c12.6,0,24.1-6.9,30.1-17.9c5.9-10.8,5.3-23.9-1.5-34.1L284.6,168.9
		C278.2,159.3,267.5,153.6,256,153.6L256,153.6z M441.5,452.3c-3,5.4-8.7,8.7-14.8,8.5H85.3c-6.2,0.3-12.1-3.1-15.1-8.5
		c-3.1-5.4-2.7-12,0.9-17.1l170.7-256.7c3.2-4.8,8.5-7.7,14.3-7.7s11.1,2.9,14.3,7.7L441,435.4C444.4,440.4,444.6,447,441.5,452.3
		L441.5,452.3z"/>
	<path id="Shape_14_" class="st2" d="M221.9,256c0,14.8,21.7,82.9,26,96.5c1.2,3.5,4.4,5.9,8.1,5.9c3.7,0,7-2.4,8.1-5.9
		c4.4-13.6,26-81.7,26-96.5c0-18.9-15.3-34.1-34.1-34.1C237.1,221.9,221.9,237.1,221.9,256z M273.1,256
		c-4.2,22.1-9.9,43.9-17.1,65.3c-7.2-21.3-12.9-43.2-17.1-65.3c0-9.4,7.6-17.1,17.1-17.1C265.4,238.9,273.1,246.6,273.1,256
		L273.1,256z"/>
	<path id="Shape_15_" class="st2" d="M256,375.5c-18.9,0-34.1,15.3-34.1,34.1c0,18.9,15.3,34.1,34.1,34.1s34.1-15.3,34.1-34.1
		C290.1,390.7,274.9,375.5,256,375.5z M256,426.7c-9.4,0-17.1-7.6-17.1-17.1c0-9.4,7.6-17.1,17.1-17.1c9.4,0,17.1,7.6,17.1,17.1
		C273.1,419,265.4,426.7,256,426.7z"/>
</g>
</svg>
