<?xml version="1.0" encoding="utf-8"?>
<!-- Generator: Adobe Illustrator 22.0.1, SVG Export Plug-In . SVG Version: 6.00 Build 0)  -->
<svg version="1.1" id="Capa_1" xmlns="http://www.w3.org/2000/svg" xmlns:xlink="http://www.w3.org/1999/xlink" x="0px" y="0px"
	 viewBox="0 0 512 512" style="enable-background:new 0 0 512 512;" xml:space="preserve">
<style type="text/css">
	.st0{fill:#FF8E43;}
</style>
<g>
	<path id="Shape_12_" class="st0" d="M154.9,289.4c-45.5,0-85.5,30.7-97.5,74.6H28.6c-14,0-25.3,11.3-25.3,25.3
		c0,14,11.3,25.3,25.3,25.3h28.8c12,44.1,52,74.6,97.5,74.6s85.5-30.7,97.5-74.6h231c14,0,25.3-11.3,25.3-25.3
		c0-14-11.3-25.3-25.3-25.3h-231C240.5,320.1,200.5,289.4,154.9,289.4z M154.9,338.8c27.9,0,50.5,22.6,50.5,50.5
		c0,27.9-22.6,50.5-50.5,50.5s-50.5-22.6-50.5-50.5C104.4,361.4,127,338.8,154.9,338.8z"/>
	<path id="Shape_14_" class="st0" d="M357.1,62c-45.5,0-85.5,30.7-97.5,74.6h-231c-14,0-25.3,11.3-25.3,25.3
		c0,14,11.3,25.3,25.3,25.3h231c12,44.1,52,74.6,97.5,74.6s85.5-30.7,97.5-74.6h28.8c14,0,25.3-11.3,25.3-25.3
		c0-14-11.3-25.3-25.3-25.3h-28.8C442.6,92.7,402.6,62,357.1,62z M357.1,111.4c27.9,0,50.5,22.6,50.5,50.5s-22.6,50.5-50.5,50.5
		s-50.5-22.6-50.5-50.5S329.2,111.4,357.1,111.4z"/>
</g>
</svg>
