<?xml version="1.0" encoding="utf-8"?>
<!-- Generator: Adobe Illustrator 22.0.1, SVG Export Plug-In . SVG Version: 6.00 Build 0)  -->
<svg version="1.1" id="Layer_1" xmlns="http://www.w3.org/2000/svg" xmlns:xlink="http://www.w3.org/1999/xlink" x="0px" y="0px"
	 viewBox="0 0 512 512" style="enable-background:new 0 0 512 512;" xml:space="preserve">
<style type="text/css">
	.st0{fill:#FF8E43;}
</style>
<path class="st0" d="M437.3,106.7H384V53.3c0-2.8-1.1-5.5-3.1-7.5L338.2,3.1c-1.3-1.3-3-2.1-4.8-2.6c-0.5-0.1-0.9-0.2-1.3-0.3
	c-0.5-0.1-0.9-0.3-1.4-0.3H224c-5.9,0-10.7,4.8-10.7,10.7v42.7c0,5.9,4.8,10.7,10.7,10.7h96v42.7H192v-96c0-4.3-2.6-8.2-6.6-9.9
	s-8.6-0.8-11.6,2.3l-42.7,42.7c-2,2-3.1,4.7-3.1,7.5v53.3H74.7c-5.9,0-10.7,4.8-10.7,10.7v352c0,23.5,19.1,42.7,42.7,42.7h298.7
	c23.5,0,42.7-19.1,42.7-42.7v-352C448,111.4,443.2,106.7,437.3,106.7z M352,386.1c-8,0-15.2-3.2-20.4-8.4l0,0L256,302l-75.6,75.6
	l0,0c-5.2,5.2-12.4,8.5-20.3,8.5c-15.9,0-28.8-12.9-28.8-28.8c0-8,3.3-15.3,8.6-20.5l95.7-95.7c5.2-5.3,12.5-8.6,20.5-8.6
	c8.4,0,16,3.6,21.3,9.4l94.1,94.1c5.8,5.3,9.4,12.8,9.4,21.3C380.8,373.2,367.8,386.1,352,386.1z"/>
</svg>
