<?xml version="1.0" encoding="utf-8"?>
<!-- Generator: Adobe Illustrator 22.0.1, SVG Export Plug-In . SVG Version: 6.00 Build 0)  -->
<svg version="1.1" id="Capa_1" xmlns="http://www.w3.org/2000/svg" xmlns:xlink="http://www.w3.org/1999/xlink" x="0px" y="0px"
	 viewBox="0 0 513.3 513.3" style="enable-background:new 0 0 513.3 513.3;" xml:space="preserve">
<g>
	<g>
		<path d="M18.2,494.1c25.6,25.6,64,25.6,89.6,0l84.5-84.5c30.7,15.4,66.6,25.6,102.4,25.6c120.3,0,217.6-97.3,217.6-217.6
			S415,0,294.7,0C174.4,0,77.1,97.3,77.1,217.6c0,35.8,10.2,71.7,25.6,102.4l-84.5,84.5C-4.8,430.1-4.8,468.5,18.2,494.1z
			 M128.3,217.6c0-92.2,74.2-166.4,166.4-166.4s166.4,74.2,166.4,166.4S386.9,384,294.7,384S128.3,309.8,128.3,217.6z"/>
	</g>
</g>
</svg>
