<?xml version="1.0" encoding="utf-8"?>
<!-- Generator: Adobe Illustrator 22.0.1, SVG Export Plug-In . SVG Version: 6.00 Build 0)  -->
<svg version="1.1" id="Layer_1" xmlns="http://www.w3.org/2000/svg" xmlns:xlink="http://www.w3.org/1999/xlink" x="0px" y="0px"
	 viewBox="0 0 512 512" style="enable-background:new 0 0 512 512;" xml:space="preserve">
<style type="text/css">
	.st0{fill:#A1FFCA;}
	.st1{fill:#FF8E43;}
	.st2{display:none;fill:#FF8E43;}
</style>
<path class="st0" d="M485.3,47.5l-134.9,413c-4.4,13.6-22.8,15.5-30,3.2l-81.2-139.7c-3.3-5.7-2.9-12.8,1-18.1l64.6-87
	c5.7-7.6-3.9-17.2-11.6-11.6l-87,64.6c-5.3,3.9-12.4,4.3-18.1,1L48.4,191.6c-12.3-7.2-10.4-25.5,3.2-30l413-134.9
	C477.4,22.5,489.5,34.6,485.3,47.5L485.3,47.5z"/>
<path class="st1" d="M334.6,480.9c-9.1,0-17.3-4.7-21.9-12.7l-81.2-139.7c-5.1-8.8-4.5-19.8,1.6-28l61.6-83l-83,61.6
	c-8.2,6.1-19.2,6.7-28,1.6L43.8,199.4c-8.8-5.1-13.6-14.6-12.5-24.7c1.1-10.1,7.8-18.4,17.4-21.6l413-134.9c9.2-3,19.1-0.6,26,6.2
	c6.8,6.8,9.2,16.8,6.2,26l-8.6-2.8l8.6,2.8l-135,413c-3.2,9.7-11.4,16.4-21.6,17.4C336.4,480.8,335.5,480.9,334.6,480.9z
	 M298.3,196.4c4.4,0,8.7,1.7,12.1,5.2c6.2,6.2,6.9,15.5,1.7,22.5l-64.6,87c-1.8,2.4-2,5.7-0.5,8.3l81.2,139.7
	c2.3,3.9,6.1,3.8,7.3,3.7c1.1-0.1,4.9-0.8,6.4-5.1l135-413c1.3-4-0.8-6.7-1.8-7.6s-3.7-3.1-7.6-1.8l-413,134.9
	c-4.3,1.4-5,5.2-5.1,6.4c-0.1,1.1-0.2,5,3.7,7.3L192.6,265c2.6,1.5,5.8,1.3,8.3-0.5l87-64.6C291.1,197.6,294.7,196.4,298.3,196.4z"
	/>
<path class="st2" d="M490.3,0.8l-479,156.5c-13.5,4.4-15.5,22.8-3.2,30l181,105.3c5.7,3.3,12.8,2.9,18.1-1l50.9-37.8l-37.8,50.9
	c-3.9,5.3-4.3,12.4-1,18.1l105.3,181c7.2,12.3,25.6,10.3,30-3.2l156.5-479C515.4,8.8,503.1-3.3,490.3,0.8L490.3,0.8z M334.7,455.3
	l-81.2-139.7l98-131.9c4.9-6.6,4.2-15.7-1.6-21.5c-5.8-5.8-15-6.5-21.5-1.6l-131.9,98L56.7,177.3l413-134.9L334.7,455.3z
	 M173.4,361.9L63.7,471.6c-6.4,6.4-16.9,6.5-23.4,0c-6.5-6.4-6.5-16.9,0-23.4l109.7-109.7c6.5-6.4,16.9-6.5,23.4,0
	C179.9,345,179.9,355.5,173.4,361.9z M28.5,366.1c-6.5-6.5-6.5-16.9,0-23.4l43.3-43.3c6.4-6.5,16.9-6.5,23.4,0
	c6.5,6.5,6.5,16.9,0,23.4l-43.3,43.3C45.4,372.5,35,372.5,28.5,366.1z M212.5,416.8c6.5,6.4,6.5,16.9,0,23.4l-43.3,43.3
	c-3.2,3.2-7.5,4.8-11.7,4.8c-14.6,0-22.1-17.8-11.7-28.2l43.3-43.3C195.6,410.4,206.1,410.4,212.5,416.8L212.5,416.8z"/>
<g>
	<path class="st1" d="M32.4,371.2c-2.3,0-4.6-0.9-6.4-2.6c-3.5-3.5-3.5-9.2,0-12.7L84.9,297c3.5-3.5,9.2-3.5,12.7,0
		c3.5,3.5,3.5,9.2,0,12.7l-58.8,58.8C37,370.3,34.7,371.2,32.4,371.2z"/>
</g>
<g>
	<path class="st1" d="M44,477c-2.3,0-4.6-0.9-6.4-2.6c-3.5-3.5-3.5-9.2,0-12.7l125.9-125.9c3.5-3.5,9.2-3.5,12.7,0
		c3.5,3.5,3.5,9.2,0,12.7L50.3,474.4C48.6,476.2,46.3,477,44,477z"/>
</g>
<g>
	<path class="st1" d="M150,488.4c-2.3,0-4.6-0.9-6.4-2.6c-3.5-3.5-3.5-9.2,0-12.7l58.7-58.7c3.5-3.5,9.2-3.5,12.7,0
		c3.5,3.5,3.5,9.2,0,12.7l-58.7,58.7C154.6,487.5,152.3,488.4,150,488.4z"/>
</g>
</svg>
